<svg id="图层_1" data-name="图层 1" xmlns="http://www.w3.org/2000/svg" viewBox="0 0 375.82 104.39"><path d="M131.08,70.74h5.28V97.47h-5.28Z" style="fill:#333"/><path d="M140.29,70.89h5l11,16.76V70.89h5V97.47h-5L145,80.1V97.47h-4.68Z" style="fill:#333"/><path d="M165.35,70.89h11.32a15.81,15.81,0,0,1,2.57.23,14.26,14.26,0,0,1,2.42.6,11,11,0,0,1,2.56,1.51A9.08,9.08,0,0,1,186.64,76a13.23,13.23,0,0,1,1.36,3.7,23,23,0,0,1,.45,4.76,20.93,20.93,0,0,1-.6,5.06,11.06,11.06,0,0,1-1.74,3.77,11.74,11.74,0,0,1-2.49,2.49,8.11,8.11,0,0,1-3,1.36,17.26,17.26,0,0,1-3.78.38H165.35Zm4.83,4.38V92.94h5.89a9.46,9.46,0,0,0,2-.23,7.46,7.46,0,0,0,2.12-.83A5.44,5.44,0,0,0,182,90.14a8.35,8.35,0,0,0,1.13-2.71,13.8,13.8,0,0,0,.38-3.17,23.07,23.07,0,0,0-.15-2.8,11.85,11.85,0,0,0-.53-2.11,5.41,5.41,0,0,0-1.06-1.81,9,9,0,0,0-1.43-1.29,5.07,5.07,0,0,0-2-.75,11.74,11.74,0,0,0-2.11-.23Z" style="fill:#333"/><path d="M192.37,87.5V70.89h5V87.5a10.12,10.12,0,0,0,.3,2.8A3.86,3.86,0,0,0,198.79,92a3.42,3.42,0,0,0,1.89.91,17.28,17.28,0,0,0,2.41.15,11.66,11.66,0,0,0,2-.15,5.87,5.87,0,0,0,1.89-.76,3.77,3.77,0,0,0,1.59-1.81,7.14,7.14,0,0,0,.52-2.87V70.89h5.14V87.05a17.35,17.35,0,0,1-.46,4.15,9.22,9.22,0,0,1-1.58,3.4A7.22,7.22,0,0,1,209,96.94a14.62,14.62,0,0,1-5.28.83,15.44,15.44,0,0,1-5.06-.45A10.92,10.92,0,0,1,195,95.5a5.71,5.71,0,0,1-2.12-3.17A18.87,18.87,0,0,1,192.37,87.5Z" style="fill:#333"/><path d="M234.35,78.59a5.57,5.57,0,0,0-.61-1.51,3,3,0,0,0-.9-.83,4.33,4.33,0,0,0-1.66-.52,15.13,15.13,0,0,0-2.12-.16,8.7,8.7,0,0,0-3,.23,4,4,0,0,0-2,1.06,2.47,2.47,0,0,0-.68,1.36,2.26,2.26,0,0,0,.23,1.28,2.1,2.1,0,0,0,.83.91,7.32,7.32,0,0,0,1.74.6,22.52,22.52,0,0,0,2.26.45l2.87.46a22.54,22.54,0,0,1,3.4.83,10.78,10.78,0,0,1,2.94,1.51,6.3,6.3,0,0,1,2,2.34,6.68,6.68,0,0,1,.53,3.47,9.39,9.39,0,0,1-1,3.7,5.93,5.93,0,0,1-2,2.34,8.16,8.16,0,0,1-2.8,1.06,32.79,32.79,0,0,1-3.39.45c-1,0-2.07,0-3.17-.08a16.35,16.35,0,0,1-3-.37A8,8,0,0,1,222.35,96,8.39,8.39,0,0,1,220,93.69a6.57,6.57,0,0,1-1.21-3.32l-.3-1.66h5.28c.1.4.2.86.3,1.36a4,4,0,0,0,.76,1.58,3.4,3.4,0,0,0,2,1.21,10.24,10.24,0,0,0,3.47.23,9,9,0,0,0,2.8-.38,2.77,2.77,0,0,0,1.58-1.13,3.18,3.18,0,0,0,.45-1.66,5,5,0,0,0-.37-1.21,2.19,2.19,0,0,0-.83-.83,7.08,7.08,0,0,0-1.59-.68,23,23,0,0,0-2.79-.6c-1.21-.2-2.39-.43-3.55-.68s-2.22-.51-3.17-.76A6,6,0,0,1,220.46,84a5.35,5.35,0,0,1-1.36-1.59,5.24,5.24,0,0,1-.6-1.73,11,11,0,0,1-.16-2,7.71,7.71,0,0,1,1.36-4.31,7.17,7.17,0,0,1,2.72-2.26,13.45,13.45,0,0,1,3.1-1,19.91,19.91,0,0,1,3.7-.31,19.07,19.07,0,0,1,4,.38,7.85,7.85,0,0,1,5.05,3.32,5.66,5.66,0,0,1,1.06,2.19l.3,1.81Z" style="fill:#333"/><path d="M249.15,86.14V97.47h-4.84V70.89h22.35v4.68H249.15v5.89h14.94v4.68Z" style="fill:#333"/><path d="M282.66,97.77a13,13,0,0,1-4.6-.76,10.28,10.28,0,0,1-3.62-2.26,13,13,0,0,1-2.5-3.17,11.1,11.1,0,0,1-1.2-3.47,22.08,22.08,0,0,1-.31-3.78,16.7,16.7,0,0,1,.53-4.45,12.11,12.11,0,0,1,1.44-3.32,13.58,13.58,0,0,1,2.41-2.8,11.4,11.4,0,0,1,3.4-2.11,14.24,14.24,0,0,1,4.3-.91,12.41,12.41,0,0,1,4.31.76,11.4,11.4,0,0,1,3.54,2,12.91,12.91,0,0,1,2.72,3.32,11.16,11.16,0,0,1,1.51,3.85,22.1,22.1,0,0,1,.3,3.62,17.63,17.63,0,0,1-.68,5.14,12,12,0,0,1-1.66,3.62,11,11,0,0,1-2.41,2.41,11.63,11.63,0,0,1-3.32,1.67A13.71,13.71,0,0,1,282.66,97.77Zm-.45-4.68a9.82,9.82,0,0,0,3-.45,6.3,6.3,0,0,0,2.64-1.74,6.9,6.9,0,0,0,1.66-3.25,16.19,16.19,0,0,0,.45-3.62,13.48,13.48,0,0,0-.75-3.85,9.12,9.12,0,0,0-1.44-2.57,7.46,7.46,0,0,0-2-1.66,6.88,6.88,0,0,0-2.71-.83,7.18,7.18,0,0,0-2.65.45,9.23,9.23,0,0,0-2.11,1.21,6.83,6.83,0,0,0-1.74,2.12,7.22,7.22,0,0,0-.9,2.71,22.49,22.49,0,0,0-.15,2.42,16.17,16.17,0,0,0,.3,3.17,8.82,8.82,0,0,0,1.13,2.87,5.63,5.63,0,0,0,2.27,2.11A8,8,0,0,0,282.21,93.09Z" style="fill:#333"/><path d="M304.1,87.2V97.47h-5V70.89h14a10.2,10.2,0,0,1,2.72.38,7,7,0,0,1,2.64,1.44,6.85,6.85,0,0,1,2,2.64,9,9,0,0,1,.67,3.55,8.21,8.21,0,0,1-.6,3.32,5.05,5.05,0,0,1-1.36,2.11l-1.05.91a6,6,0,0,1,1.13.83,4.61,4.61,0,0,1,.68.9,4.44,4.44,0,0,1,.45,1.29,6.45,6.45,0,0,1,.15,1.21v8h-5v-5a12.09,12.09,0,0,0-.15-2A4.2,4.2,0,0,0,314.9,89a4.09,4.09,0,0,0-.83-1,3.42,3.42,0,0,0-1.21-.6,6.38,6.38,0,0,0-1.81-.23Zm0-4.38,7.55-.15a5.64,5.64,0,0,0,2.34-.38,3.23,3.23,0,0,0,1.89-3.7,3.4,3.4,0,0,0-.83-1.81,3.12,3.12,0,0,0-1.59-1,6.88,6.88,0,0,0-1.66-.23h-7.7Z" style="fill:#333"/><path d="M344.57,80.1c-.1-.3-.23-.65-.38-1a4.83,4.83,0,0,0-1.13-1.51A7.22,7.22,0,0,0,340.72,76a8,8,0,0,0-3.1-.61,7.69,7.69,0,0,0-4.45,1.74,9,9,0,0,0-2.34,3.25,10.33,10.33,0,0,0-.76,4.07,11.35,11.35,0,0,0,.61,3.93,6.85,6.85,0,0,0,2.41,3.17,8.78,8.78,0,0,0,4.23,1.51,6.7,6.7,0,0,0,3.4-.53,6.2,6.2,0,0,0,2.34-1.89,5.07,5.07,0,0,0,1.05-2.26l.46-1.66h5.28c-.2,1.11-.4,2.06-.6,2.87A12.3,12.3,0,0,1,348,92.56a9.7,9.7,0,0,1-2.41,2.87,10.82,10.82,0,0,1-3.32,1.74,16.62,16.62,0,0,1-4.91.6,14,14,0,0,1-4.15-.53,11.12,11.12,0,0,1-3.32-1.66,10.12,10.12,0,0,1-2.72-2.94,13.65,13.65,0,0,1-1.66-3.85,17.43,17.43,0,0,1-.53-4.46A14.41,14.41,0,0,1,326,78.75a12.38,12.38,0,0,1,2.87-4.31,13.44,13.44,0,0,1,3.85-2.64,15.75,15.75,0,0,1,9.36-.38,11.51,11.51,0,0,1,3.54,1.89,12.63,12.63,0,0,1,2.5,2.64,9.21,9.21,0,0,1,1.28,2.49l.3,1.66Z" style="fill:#333"/><path d="M358.31,86.29v6.5h17.51v4.68H353.48V70.89h22.34v4.68H358.31v6h17.34v4.68Z" style="fill:#333"/><path d="M141.07,6.8h40.14V6.73h9.31V47.81a7.5,7.5,0,0,1-.56,2.88,7.32,7.32,0,0,1-6.81,4.49H131.82V52.83h-.06V6.8h9.31Zm0,6.63V48.54h38.06a2,2,0,0,0,1.48-.6,2.08,2.08,0,0,0,.6-1.54v-33Zm15.21,26.13V33.87H144.69l2-6.64h9.57V22.34H143.21l2-6.63h33.83v6.63h-13v4.89h11.52v6.64H166.07v5.69h3.82L169,35.48h8l2.41,10.72H143.21l2-6.64Z" style="fill:#333"/><path d="M268.86,30H255.12l2.23-6.9h56.41V30h-35l-8,16.89H300l-4.42-9h9.78L313.76,55H304l-.67-1.27H257.6Zm-7.56-23h48.51v6.9H259.08Z" style="fill:#333"/><path d="M366.09,15.84h9.05v6.9h-.07V49.08a5.8,5.8,0,0,1-1.71,4.22A5.62,5.62,0,0,1,369.18,55H352.76l2-6.23h9.78a1.47,1.47,0,0,0,1.54-1.54V22.74H344.32L327.09,55h-10l17.22-32.3H317.11v-6.9h6l-3.35-7.37h10.86L334,15.84h4l4.75-9h10l-4.76,9Zm-5,28.28H350.28l-6-15.14h10.85Z" style="fill:#333"/><polygon points="226.78 21.81 214.08 21.81 212.04 28.44 226.78 28.44 236.09 28.44 252.24 28.44 252.24 21.81 236.09 21.81 236.09 16.18 250.77 16.18 250.77 9.54 236.09 9.54 236.09 6.59 226.78 6.59 226.78 9.54 215.55 9.54 213.51 16.18 226.78 16.18 226.78 21.81" style="fill:#333"/><polygon points="212.04 6.59 201.85 6.59 193.41 25.69 199.84 25.69 199.84 55.31 209.62 55.31 209.62 18.46 206.81 18.46 212.04 6.59" style="fill:#333"/><polygon points="236.09 41.1 250.77 41.1 250.77 34.47 236.09 34.47 236.09 30.94 226.78 30.94 226.78 34.47 215.55 34.47 213.51 41.1 226.78 41.1 226.78 48.27 214.08 48.27 212.04 54.91 252.24 54.91 252.24 48.27 236.09 48.27 236.09 41.1" style="fill:#333"/><path d="M89.6,0H14.8A14.79,14.79,0,0,0,0,14.8V36.09H8.57V14.8A6.23,6.23,0,0,1,14.8,8.57H89.6a6.22,6.22,0,0,1,6.22,6.23v3.25h-69a8.78,8.78,0,0,0-8.78,8.78v9.26h8.57V29A2.35,2.35,0,0,1,29,26.62H95.82v63a6.21,6.21,0,0,1-6.22,6.22H14.8A6.22,6.22,0,0,1,8.57,89.6V51h9.48V80.9a5.45,5.45,0,0,0,5.44,5.45H80.9a5.45,5.45,0,0,0,5.45-5.45V52.09h0V49.16a5.55,5.55,0,0,0-5.55-5.54H52.24v8.57H75.43a2.35,2.35,0,0,1,2.35,2.34v20.9a2.35,2.35,0,0,1-2.35,2.35H29a2.35,2.35,0,0,1-2.35-2.35V51h0V43.62H0v46a14.79,14.79,0,0,0,14.8,14.79H89.6A14.79,14.79,0,0,0,104.39,89.6V14.8A14.79,14.79,0,0,0,89.6,0Z" style="fill:#3271ef"/></svg>